<?xml version="1.0" encoding="utf-8"?>
<!-- Generator: Adobe Illustrator 23.0.3, SVG Export Plug-In . SVG Version: 6.00 Build 0)  -->
<svg version="1.1" id="Layer_1" xmlns="http://www.w3.org/2000/svg" xmlns:xlink="http://www.w3.org/1999/xlink" x="0px" y="0px"
	 viewBox="0 0 387.9 387.9" style="enable-background:new 0 0 387.9 387.9;" xml:space="preserve">
<style type="text/css">
	.st0{fill:url(#SVGID_1_);}
	.st1{fill:url(#SVGID_2_);}
	.st2{fill:url(#SVGID_3_);}
	.st3{fill:url(#SVGID_4_);}
	.st4{fill:url(#SVGID_5_);}
	.st5{fill:url(#SVGID_6_);}
	.st6{fill:url(#SVGID_7_);}
	.st7{fill:url(#SVGID_8_);}
	.st8{fill:url(#SVGID_9_);}
	.st9{fill:url(#SVGID_10_);}
	.st10{fill:url(#SVGID_11_);}
	.st11{fill:url(#SVGID_12_);}
	.st12{fill:url(#SVGID_13_);}
	.st13{fill:url(#SVGID_14_);}
	.st14{fill:url(#SVGID_15_);}
	.st15{fill:url(#SVGID_16_);}
	.st16{fill:url(#SVGID_17_);}
	.st17{fill:url(#SVGID_18_);}
	.st18{fill:url(#SVGID_19_);}
	.st19{fill:url(#SVGID_20_);}
	.st20{fill:url(#SVGID_21_);}
	.st21{fill:url(#SVGID_22_);}
	.st22{fill:url(#SVGID_23_);}
	.st23{fill:url(#SVGID_24_);}
	.st24{fill:url(#SVGID_25_);}
	.st25{fill:url(#SVGID_26_);}
	.st26{fill:url(#SVGID_27_);}
	.st27{fill:url(#SVGID_28_);}
	.st28{fill:url(#SVGID_29_);}
	.st29{fill:url(#SVGID_30_);}
	.st30{fill:url(#SVGID_31_);}
	.st31{fill:url(#SVGID_32_);}
	.st32{fill:url(#SVGID_33_);}
	.st33{fill:url(#SVGID_34_);}
	.st34{fill:url(#SVGID_35_);}
	.st35{fill:url(#SVGID_36_);}
	.st36{fill:url(#SVGID_37_);}
	.st37{fill:url(#SVGID_38_);}
	.st38{fill:url(#SVGID_39_);}
	.st39{fill:url(#SVGID_40_);}
	.st40{fill:url(#SVGID_41_);}
	.st41{fill:url(#SVGID_42_);}
	.st42{fill:url(#SVGID_43_);}
	.st43{fill:url(#SVGID_44_);}
	.st44{fill:url(#SVGID_45_);}
	.st45{fill:url(#SVGID_46_);}
	.st46{fill:url(#SVGID_47_);}
	.st47{fill:url(#SVGID_48_);}
	.st48{fill:url(#SVGID_49_);}
	.st49{fill:url(#SVGID_50_);}
	.st50{fill:url(#SVGID_51_);}
	.st51{fill:url(#SVGID_52_);}
	.st52{fill:url(#SVGID_53_);}
	.st53{fill:url(#SVGID_54_);}
	.st54{fill:url(#SVGID_55_);}
	.st55{fill:url(#SVGID_56_);}
	.st56{fill:url(#SVGID_57_);}
	.st57{fill:url(#SVGID_58_);}
	.st58{fill:url(#SVGID_59_);}
	.st59{fill:url(#SVGID_60_);}
	.st60{fill:url(#SVGID_61_);}
	.st61{fill:url(#SVGID_62_);}
	.st62{fill:url(#SVGID_63_);}
	.st63{fill:url(#SVGID_64_);}
	.st64{fill:url(#SVGID_65_);}
	.st65{fill:url(#SVGID_66_);}
	.st66{fill:url(#SVGID_67_);}
	.st67{fill:url(#SVGID_68_);}
	.st68{fill:url(#SVGID_69_);}
	.st69{fill:url(#SVGID_70_);}
	.st70{fill:url(#SVGID_71_);}
	.st71{fill:url(#SVGID_72_);}
	.st72{fill:url(#SVGID_73_);}
	.st73{fill:url(#SVGID_74_);}
	.st74{fill:url(#SVGID_75_);}
	.st75{fill:url(#SVGID_76_);}
	.st76{fill:url(#SVGID_77_);}
	.st77{fill:url(#SVGID_78_);}
	.st78{fill:url(#SVGID_79_);}
	.st79{fill:url(#SVGID_80_);}
	.st80{fill:url(#SVGID_81_);}
	.st81{fill:url(#SVGID_82_);}
	.st82{fill:url(#SVGID_83_);}
	.st83{fill:url(#SVGID_84_);}
	.st84{fill:url(#SVGID_85_);}
	.st85{fill:url(#SVGID_86_);}
	.st86{fill:url(#SVGID_87_);}
	.st87{fill:url(#SVGID_88_);}
	.st88{fill:url(#SVGID_89_);}
	.st89{fill:url(#SVGID_90_);}
	.st90{fill:url(#SVGID_91_);}
	.st91{fill:url(#SVGID_92_);}
	.st92{fill:url(#SVGID_93_);}
	.st93{fill:url(#SVGID_94_);}
	.st94{fill:url(#SVGID_95_);}
	.st95{fill:url(#SVGID_96_);}
	.st96{fill:url(#SVGID_97_);}
	.st97{fill:url(#SVGID_98_);}
	.st98{fill:url(#SVGID_99_);}
	.st99{fill:url(#SVGID_100_);}
	.st100{fill:url(#SVGID_101_);}
	.st101{fill:url(#SVGID_102_);}
	.st102{fill:url(#SVGID_103_);}
	.st103{fill:url(#SVGID_104_);}
	.st104{fill:url(#SVGID_105_);}
	.st105{fill:url(#SVGID_106_);}
	.st106{fill:url(#SVGID_107_);}
	.st107{fill:url(#SVGID_108_);}
	.st108{fill:url(#SVGID_109_);}
	.st109{fill:url(#SVGID_110_);}
	.st110{fill:url(#SVGID_111_);}
	.st111{fill:url(#SVGID_112_);}
	.st112{fill:url(#SVGID_113_);}
	.st113{fill:url(#SVGID_114_);}
	.st114{fill:url(#SVGID_115_);}
	.st115{fill:url(#SVGID_116_);}
	.st116{fill:url(#SVGID_117_);}
	.st117{fill:url(#SVGID_118_);}
	.st118{fill:url(#SVGID_119_);}
	.st119{fill:url(#SVGID_120_);}
	.st120{fill:url(#SVGID_121_);}
	.st121{fill:url(#SVGID_122_);}
	.st122{fill:url(#SVGID_123_);}
	.st123{fill:url(#SVGID_124_);}
	.st124{fill:url(#SVGID_125_);}
	.st125{fill:url(#SVGID_126_);}
	.st126{fill:url(#SVGID_127_);}
	.st127{fill:url(#SVGID_128_);}
	.st128{fill:url(#SVGID_129_);}
	.st129{fill:url(#SVGID_130_);}
	.st130{fill:url(#SVGID_131_);}
	.st131{fill:url(#SVGID_132_);}
	.st132{fill:url(#SVGID_133_);}
	.st133{fill:url(#SVGID_134_);}
	.st134{fill:url(#SVGID_135_);}
	.st135{fill:url(#SVGID_136_);}
	.st136{fill:url(#SVGID_137_);}
	.st137{fill:url(#SVGID_138_);}
	.st138{fill:url(#SVGID_139_);}
	.st139{fill:url(#SVGID_140_);}
	.st140{fill:url(#SVGID_141_);}
	.st141{fill:url(#SVGID_142_);}
	.st142{fill:url(#SVGID_143_);}
	.st143{fill:url(#SVGID_144_);}
	.st144{fill:url(#SVGID_145_);}
	.st145{fill:url(#SVGID_146_);}
	.st146{fill:url(#SVGID_147_);}
	.st147{fill:url(#SVGID_148_);}
	.st148{fill:url(#SVGID_149_);}
	.st149{fill:url(#SVGID_150_);}
	.st150{fill:url(#SVGID_151_);}
	.st151{fill:url(#SVGID_152_);}
	.st152{fill:url(#SVGID_153_);}
	.st153{fill:url(#SVGID_154_);}
	.st154{fill:url(#SVGID_155_);}
	.st155{fill:url(#SVGID_156_);}
	.st156{fill:url(#SVGID_157_);}
	.st157{fill:url(#SVGID_158_);}
	.st158{fill:url(#SVGID_159_);}
	.st159{fill:url(#SVGID_160_);}
	.st160{fill:url(#SVGID_161_);}
	.st161{fill:url(#SVGID_162_);}
	.st162{fill:url(#SVGID_163_);}
	.st163{fill:url(#SVGID_164_);}
	.st164{fill:url(#SVGID_165_);}
	.st165{fill:url(#SVGID_166_);}
	.st166{fill:url(#SVGID_167_);}
	.st167{fill:url(#SVGID_168_);}
	.st168{fill:url(#SVGID_169_);}
	.st169{fill:url(#SVGID_170_);}
</style>
<g>
	<path d="M203.3,60.9C129.6,60.8,70,120.4,70,194.1c0,73.3,59.2,132.7,132.6,132.9c73.6,0.2,133.5-59.5,133.5-133.1
		C336,120.9,276.3,61,203.3,60.9z M190.4,72.5c5.9-3.1,9-2.8,8.4,5.2c-0.6,6.8-0.1,13.8-0.1,20.7c0,6.9-0.2,13.8,0.1,20.7
		c0.1,4.1-0.6,6.3-5.5,6c-11.3-0.5-22.5-1.6-33.6-3.7c-2.7-0.5-5-0.8-3.5-4.5C163.8,99.1,172.2,82.1,190.4,72.5z M172.9,73.2
		c-12.1,13.3-20,26.6-25.4,41.4c-1,2.7-2.4,3.9-5.6,2.9c-9.2-2.8-18.4-5.4-27.4-10.7C130.6,90.5,149.2,80,172.9,73.2z M198.8,245.2
		c0.1,4.5-0.5,6.9-5.9,6.9c-12.2,0.1-24.4,1.3-36.4,4c-4,0.9-5.6-0.5-6.5-4.3c-4-15.9-5.9-32-7-48.3c-0.3-4.3,1.6-5.4,5.5-5.3
		c7.5,0.2,15,0.1,22.6,0.1c6.9,0,13.8,0.3,20.7-0.1c5-0.2,7.3,0.8,7.1,6.5C198.4,218.2,198.5,231.7,198.8,245.2z M78.8,183.4
		c2.6-23.5,10.6-44.9,24.7-64.1c3.1-4.2,5.5-5.4,10.7-2.8c7.5,3.7,15.7,6.2,23.7,8.7c4.2,1.3,5.2,3.1,4,7.4
		c-4.7,16.7-7.1,33.7-7.3,51c0,5.1-1.9,6.5-6.6,6.3c-7.2-0.3-14.4-0.1-21.6-0.1c-7.2,0-14.4-0.2-21.6,0.1
		C79.8,190,78.2,188.6,78.8,183.4z M103.3,268.5c-14.2-19.4-22.2-41-24.6-64.9c-0.4-4.3,1.1-5.5,5.1-5.4c7.5,0.2,15,0.1,22.5,0.1
		c0,0.1,0,0.2,0,0.3c8.7,0,19.5-3.1,25.7,0.8c6.8,4.3,1.8,16.1,3.9,24.5c2.3,9.7,3.2,19.7,5.4,29.4c1,4.4,0.3,5.8-4,7.2
		c-8.9,2.8-17.7,6.1-26.2,10C107.3,272.3,105.4,271.4,103.3,268.5z M115.6,282.5c-2.1-2-2.1-3.6,0.6-4.9c1.4-0.7,2.8-1.4,4.3-1.9
		c7.3-2.6,15.1-7.9,22-6.9c7.8,1.1,7.2,12.2,10.8,18.5c5.1,8.9,10.8,17.3,18.6,26.9C148.9,308.3,131.1,297.4,115.6,282.5z
		 M198.8,268.2c-0.6,7.1-0.1,14.4-0.1,21.5c0,7.5-0.3,15,0.1,22.5c0.3,5.2-1.6,6-5.9,4.3c-8.1-3.2-14.3-8.7-19.8-15.3
		c-7.4-9-12.4-19.4-16.9-30.1c-2.1-4.8-0.8-6.8,4.4-7.2c9.9-0.9,19.9-2.1,29.8-3.4C196.5,259.6,199.4,261.1,198.8,268.2z
		 M197.3,187.8c-5.2,5.9-17.7,1.3-26.9,1.9c-2.2,0.1-4.4,0-6.6,0c-21.4,0-21.5,0-19.5-21.7c1-11.2,3.2-22.2,6-33.2
		c1-4.1,2.3-6,7.6-5c11.7,2,23.5,3.2,35.4,3.9c4.7,0.3,5.7,1.9,5.5,6.1c-0.3,7.2-0.1,14.4-0.1,21.6c-0.1,0-0.3,0-0.4,0
		C198.3,170.5,201.8,182.7,197.3,187.8z M304.4,121.9c12.3,18.3,19.9,38.1,22.4,60c0.7,6.2-1,8.4-7.4,7.9
		c-6.8-0.5-13.8-0.1-20.7-0.1c0-0.2,0-0.5,0-0.7c-8.7,0-19.9,3.2-25.4-1c-4.6-3.5-2.2-15.8-3.4-24.1c-1.5-10.2-3-20.5-5.8-30.4
		c-1.7-6.1,0.4-7.4,5.3-8.8c6.6-1.9,13.4-3.8,19.3-7.1C296,113.7,299.9,115.3,304.4,121.9z M291.2,106.7c-9,5.6-18.4,8-27.8,10.9
		c-3.5,1.1-4.2-1-5.2-3.5c-5.7-14.3-12.8-27.8-23.3-39.4C256.7,80,275.1,90.4,291.2,106.7z M207.2,224.2c0-6.6,0.3-13.2-0.1-19.7
		c-0.3-5,1.7-6.4,6.5-6.3c14.4,0.3,28.8,0.3,43.2,0c5.3-0.1,6.3,2,6,6.6c-0.9,15.6-3,31.1-6.8,46.3c-1,4-2.2,6-6.8,5
		c-11.6-2.7-23.5-3.8-35.4-3.9c-5.4-0.1-7-2.1-6.7-7.3C207.4,238,207.2,231.1,207.2,224.2z M256.6,189.8c-7.5-0.3-15-0.1-22.6-0.1
		c-6.9,0-13.8-0.3-20.7,0.1c-5.1,0.3-6.4-1.8-6.3-6.6c0.2-14.4,0.2-28.8,0-43.2c-0.1-4.2,0.8-5.9,5.6-6.2
		c11.9-0.8,23.7-2.1,35.5-3.9c4.3-0.6,6.1-0.1,7.2,4.3c4.1,16.1,6.5,32.5,7.5,49.1C263.1,188.2,261.6,190,256.6,189.8z M207,114.4
		c0.7-12.8,0.4-25.6,0.1-38.4c-0.1-5.7,1.9-6.3,6.6-4.3c15.7,6.9,24.5,20,31.2,34.6c6.7,14.7,10.5,13.9-8.7,16.6
		c-5.9,0.8-11.8,1.4-17.7,2.1C209.2,127.3,206.4,123.7,207,114.4z M218,314.2c-9.3,5.7-10.8,4.6-10.8-6c0-6.2,0-12.5,0-18.7
		c0-7.5,0.3-15-0.1-22.5c-0.3-5.6,2-7.1,7.1-6.4c10.8,1.4,21.7,2.5,32.5,3.8c2.4,0.3,5.4,0.4,3.8,4.4
		C243.5,286.6,235.2,303.7,218,314.2z M233.3,314.5c12.6-14,20.8-28.1,26-43.9c0.9-2.6,2.7-3.1,5.2-2.4c9.5,2.9,19,6,28.6,11.2
		C276.5,296.6,257.7,307.9,233.3,314.5z M326.9,203.6c-1.9,24.4-10.5,46.2-25,65.8c-2.2,3-4.2,2.4-7.2,1.1
		c-8.6-3.6-17.4-7.2-26.3-9.8c-4.9-1.4-4.7-3.7-3.7-7.5c4.1-15.8,6.1-32,6.7-48.3c0.2-5.3,1.9-7,7.1-6.7c7.2,0.4,14.4,0.1,21.6,0.1
		c7.2,0,14.4,0.2,21.6-0.1C325.8,198.1,327.2,199.4,326.9,203.6z"/>
</g>
</svg>
