<?xml version="1.0" encoding="UTF-8" standalone="no"?> <svg xmlns="http://www.w3.org/2000/svg" viewBox="0 0 512 512"><title>Spoon_and_Fork_with_Dish</title><g id="Spoon_Fork_with_Dish" data-name="Spoon &amp; Fork with Dish"><g id="Spoon_Fork_with_Dish-2" data-name="Spoon &amp; Fork with Dish"><path d="M187.0945,191.9911l-2.91,119.4285a14.6931,14.6931,0,1,0,29.3861,0l-2.9071-119.4285c19.0262-6.0316,33.0332-26.226,33.0332-50.28,0-28.8068-20.0665-52.1633-44.8173-52.1633s-44.8182,23.3565-44.8182,52.1633C154.0613,165.7651,168.076,185.96,187.0945,191.9911Z"/><path d="M306.4865,191.8361,303.58,311.42a14.6911,14.6911,0,1,0,29.3822,0l-2.9128-119.5835c13.8857-4.87,26.7918-18.0523,26.7918-33.5951V89.9143h-17.143v60.0011H326.2258V89.9143H311.781v60.0011H298.309V89.9143H279.7005v68.33C279.7005,173.7838,292.6066,186.966,306.4865,191.8361Z"/><path d="M401.9581,344.79H110.0457a23.3286,23.3286,0,1,0,0,46.6571h17.6819l19.2648,31.0056h212.917l21.6561-31.0056h20.3926a23.3286,23.3286,0,0,0,0-46.6571Zm-52.5837,57.4548H158.2309l-6.709-10.7977H356.9186Z"/></g></g></svg>