<?xml version="1.0" encoding="UTF-8" standalone="no"?> <svg width="64" height="64" viewBox="0 0 64 64" fill="none" xmlns="http://www.w3.org/2000/svg">
<path d="M61.41 29.1001C61.1854 28.8752 60.9104 28.7071 60.6078 28.6097C60.3052 28.5123 59.9837 28.4884 59.67 28.5401C56.89 29.0901 48.18 30.1901 45.67 31.2401C46.0802 25.3207 44.4302 19.4417 41 14.6001L33.63 4.32008C33.4451 4.06003 33.2007 3.84799 32.9171 3.70167C32.6336 3.55535 32.3191 3.479 32 3.479C31.681 3.479 31.3665 3.55535 31.0829 3.70167C30.7994 3.84799 30.5549 4.06003 30.37 4.32008L23 14.6001C19.5592 19.4378 17.8986 25.3171 18.3 31.2401C15.76 30.1801 7.09004 29.1001 4.30004 28.5401C3.9863 28.4881 3.66468 28.5117 3.36187 28.6089C3.05907 28.7061 2.78381 28.8741 2.55893 29.099C2.33406 29.3238 2.16605 29.5991 2.06885 29.9019C1.97165 30.2047 1.94806 30.5263 2.00004 30.8401L3.74004 41.1201C4.47406 45.5352 6.57016 49.6103 9.73497 52.7752C12.8998 55.94 16.9749 58.0361 21.39 58.7701L31.67 60.4901C31.889 60.5201 32.1111 60.5201 32.33 60.4901L42.61 58.7701C47.0252 58.0361 51.1003 55.94 54.2651 52.7752C57.4299 49.6103 59.526 45.5352 60.26 41.1201L62 30.8401C62.0479 30.524 62.0193 30.2011 61.9167 29.8983C61.814 29.5956 61.6403 29.3218 61.41 29.1001V29.1001ZM22.05 54.8301C18.4585 54.2315 15.1438 52.5256 12.5692 49.951C9.99452 47.3763 8.28868 44.0616 7.69004 40.4701L6.43004 33.0001L14 34.2001C17.5825 34.8082 20.8861 36.5182 23.451 39.0921C26.0159 41.666 27.7144 44.9756 28.31 48.5601L29.57 56.0801L22.05 54.8301ZM56.31 40.4701C55.7144 44.0546 54.0159 47.3642 51.451 49.9381C48.8861 52.5119 45.5825 54.222 42 54.8301L34.48 56.0801L35.74 48.5601C36.3357 44.9756 38.0342 41.666 40.5991 39.0921C43.164 36.5182 46.4676 34.8082 50.05 34.2001L57.57 33.0001L56.31 40.4701Z" fill="black"/>
</svg>
